<?xml version="1.0" encoding="utf-8"?>
<!-- Generator: Adobe Illustrator 24.0.0, SVG Export Plug-In . SVG Version: 6.00 Build 0)  -->
<svg version="1.1" id="Capa_1" xmlns="http://www.w3.org/2000/svg" xmlns:xlink="http://www.w3.org/1999/xlink" x="0px" y="0px"
	 viewBox="0 0 512 512" style="enable-background:new 0 0 512 512;" xml:space="preserve">
<style type="text/css">
	.st0{fill:#1F87AD;}
</style>
<g>
	<g>
		<path class="st0" d="M512,284.1c0-16.9-9.3-32.2-24.2-39.8c-15.2-7.8-34.9-11.7-58.5-11.7H172.3c-1.9-9.2-5.9-17.6-12.1-24.5
			l-36.4-40.5c-9-10-22-16.1-36.5-17.1l-6.5-0.5c-3.4-0.2-6.8,0.2-10,1.3v-21.4c0-7.5-3.2-14.3-8.2-19.1c5.1-6.1,8.2-14,8.2-22.6
			c0-19.5-15.9-35.4-35.4-35.4S0,68.7,0,88.2c0,8.6,3.1,16.5,8.2,22.6C3.2,115.7,0,122.4,0,129.9v319.2c0,5.5,4.5,10,10,10h34.5
			c5.2,0,9.5-3.9,10-9.1c1.2-12.6,7.8-47.2,24.3-62.7h26.8c5.5,0,10-4.5,10-10s-4.5-10-10-10l-85.6,0v-88l133.5,0v26.1
			c0,15.4,12.5,28,28,28h0H484c2.7,0,5.4-0.4,8-1.2v35.2h-55.1c0,0,0,0,0,0H193.6c-5.5,0-10,4.5-10,10s4.5,10,10,10h239.6
			c16.4,15.5,23.1,50.1,24.3,62.7c0.5,5.1,4.8,9.1,10,9.1H502c5.5,0,10-4.5,10-10L512,284.1z M70.8,184.1c0.1-4.3-0.4-8.7,3.1-11.8
			c3.5-3.2,7.8-2.1,12.1-1.8c9.4,0.7,17.4,4.3,23,10.6l36.4,40.5c5.9,6.6,8.7,15.7,8,25.8c-0.3,3.9-0.2,7.3-3.5,10
			c-3,2.5-6.2,2-9.8,1.9c-10.1-0.3-18.9-4.1-24.8-10.6l-36.4-40.5C73,201.5,70.5,192.8,70.8,184.1L70.8,184.1z M20,259.4V129.9
			c0-3.5,2.8-6.3,6.3-6.3h18.1c3.5,0,6.3,2.8,6.3,6.3v129.4L20,259.4L20,259.4z M70.8,229l27.3,30.4H70.8V229z M35.4,72.9
			c8.5,0,15.4,6.9,15.4,15.4s-6.9,15.4-15.4,15.4S20,96.7,20,88.2S26.9,72.9,35.4,72.9z M35.8,439.1H20v-51.7h33.5
			C42.7,405.1,37.8,427,35.8,439.1z M181.4,313.4c-4.4,0-8-3.6-8-8l0-52.8h255.8c20.4,0,37.1,3.2,49.4,9.5
			c8.2,4.2,13.3,12.6,13.3,22v21.2c0,0,0,0,0,0c0,4.4-3.6,8-8,8L181.4,313.4L181.4,313.4z M476.2,439.1c-2-12.1-6.9-34-17.7-51.7
			H492v51.7H476.2z"/>
		<path class="st0" d="M158.8,373.6c-2.1-5-8-7.5-13.1-5.4c-5,2.1-7.5,8-5.4,13.1c2.1,5,8,7.5,13.1,5.4
			C158.4,384.5,160.9,378.6,158.8,373.6z"/>
	</g>
</g>
</svg>
