<?xml version="1.0" encoding="utf-8"?>
<!-- Generator: Adobe Illustrator 24.0.0, SVG Export Plug-In . SVG Version: 6.00 Build 0)  -->
<svg version="1.1" id="Capa_1" xmlns="http://www.w3.org/2000/svg" xmlns:xlink="http://www.w3.org/1999/xlink" x="0px" y="0px"
	 viewBox="0 0 512 512" style="enable-background:new 0 0 512 512;" xml:space="preserve">
<style type="text/css">
	.st0{fill:#1F87AD;}
</style>
<g id="Page-1">
	<g id="shelter_export" transform="translate(-536 -776)">
		<path id="car_x2C_-vehicle_x2C_-drive_x2C_-roof_x2C_-home_x2C_-garage" class="st0" d="M596.2,1227.8
			c-16.6,0-30.1-13.5-30.1-30.1v-56.5c0-3.7,0.5-7.4,1.3-11l6.9-27.4c1.3-5,3.2-9.8,5.7-14.1l-17.6-4.4c-8.1-2-13-10.2-11-18.3
			c2-8.1,10.2-13,18.3-11l28.3,7.1h17.6l27.4-77.8c10.6-30.1,39.1-50.2,71-50.2h155.7c31.9,0,60.4,20.1,71,50.2l27.4,77.8h17.6
			l28.3-7.1c8.1-2,16.2,2.9,18.3,11s-2.9,16.2-11,18.3l-17.6,4.4c2.5,4.3,4.5,9,5.7,14.1l6.9,27.4c0.9,3.6,1.3,7.3,1.3,11v56.5
			c0,16.6-13.5,30.1-30.1,30.1v30.1c0,16.6-13.5,30.1-30.1,30.1h-60.2c-16.6,0-30.1-13.5-30.1-30.1v-30.1H716.7v30.1
			c0,16.6-13.5,30.1-30.1,30.1h-60.2c-16.6,0-30.1-13.5-30.1-30.1L596.2,1227.8z M936.4,1062.1l-23.9-67.7
			c-6.4-18.1-23.4-30.1-42.6-30.1H714.1c-19.2,0-36.2,12.1-42.6,30.1l-23.9,67.7H936.4z M892.1,1197.6h95.6v-56.5
			c0-1.2-0.2-2.5-0.4-3.7l-6.9-27.4c-2.6-10.5-12-17.8-22.8-17.8H626.4c-10.8,0-20.2,7.3-22.8,17.8l-6.9,27.4
			c-0.3,1.2-0.4,2.4-0.4,3.7v56.5h95.6l26.1-58.8c2.4-5.4,7.8-8.9,13.8-8.9h120.5c6,0,11.3,3.5,13.8,8.9L892.1,1197.6z
			 M957.6,1227.8h-60.2v30.1h60.2V1227.8z M859.2,1197.6l-16.7-37.6H741.6l-16.7,37.6H859.2z M626.4,1227.8v30.1h60.2v-30.1H626.4z
			 M557.1,910.3c-7.6,3.3-16.5-0.1-19.8-7.8c-3.3-7.6,0.1-16.5,7.8-19.8L786,777.3c3.8-1.7,8.2-1.7,12.1,0L1039,882.7
			c7.6,3.3,11.1,12.2,7.8,19.8c-3.3,7.6-12.2,11.1-19.8,7.8L792,807.5L557.1,910.3z M942.6,1160c-12.5,0-22.6-10.1-22.6-22.6
			s10.1-22.6,22.6-22.6c12.5,0,22.6,10.1,22.6,22.6S955.1,1160,942.6,1160z M641.4,1160c-12.5,0-22.6-10.1-22.6-22.6
			s10.1-22.6,22.6-22.6c12.5,0,22.6,10.1,22.6,22.6S653.9,1160,641.4,1160z"/>
	</g>
</g>
</svg>
