<?xml version="1.0" encoding="utf-8"?>
<!-- Generator: Adobe Illustrator 24.0.0, SVG Export Plug-In . SVG Version: 6.00 Build 0)  -->
<svg version="1.1" id="Capa_1" xmlns="http://www.w3.org/2000/svg" xmlns:xlink="http://www.w3.org/1999/xlink" x="0px" y="0px"
	 viewBox="0 0 512 512" style="enable-background:new 0 0 512 512;" xml:space="preserve">
<style type="text/css">
	.st0{fill:#1F87AD;}
</style>
<path class="st0" d="M280,89.7c0-4.1-3.4-7.5-7.5-7.5h-33.3c-4.1,0-7.5,3.4-7.5,7.5v60c0,4.1,3.4,7.5,7.5,7.5h33.3
	c4.1,0,7.5-3.4,7.5-7.5V89.7z M265,142.2h-18.3v-45H265V142.2z"/>
<path class="st0" d="M280,227.5c0-4.1-3.4-7.5-7.5-7.5h-33.3c-4.1,0-7.5,3.4-7.5,7.5v60c0,4.1,3.4,7.5,7.5,7.5h33.3
	c4.1,0,7.5-3.4,7.5-7.5V227.5z M265,280h-18.3v-45H265V280z"/>
<path class="st0" d="M272.5,357.8h-33.3c-4.1,0-7.5,3.4-7.5,7.5v60c0,4.1,3.4,7.5,7.5,7.5h33.3c4.1,0,7.5-3.4,7.5-7.5v-60
	C280,361.1,276.6,357.8,272.5,357.8z M265,417.7h-18.3v-45H265V417.7z"/>
<path class="st0" d="M460.1,194.7c5.8,0,10.5-4.7,10.5-10.5v-26.7c0-5.8-4.7-10.5-10.5-10.5h-8.3V65.2c0-7.4-6.1-13.5-13.5-13.5
	H335.8c-4.1,0-7.5,3.4-7.5,7.5s3.4,7.5,7.5,7.5h101v80.4H424v-30.9c0-6.3-5.2-11.5-11.5-11.5h-47.8c-6.3,0-11.5,5.2-11.5,11.5v30.9
	h-9.8c-5.8,0-10.5,4.7-10.5,10.5v26.7c0,5.8,4.7,10.5,10.5,10.5h93.5v83.6H424v-30.9c0-6.3-5.2-11.5-11.5-11.5h-47.8
	c-6.3,0-11.5,5.2-11.5,11.5v30.9h-9.8c-5.8,0-10.5,4.7-10.5,10.5v26.7c0,5.8,4.7,10.5,10.5,10.5h93.5v83.6H424v-30.9
	c0-6.3-5.2-11.5-11.5-11.5h-47.8c-6.3,0-11.5,5.2-11.5,11.5v30.9h-9.8c-5.8,0-10.5,4.7-10.5,10.5v26.7c0,5.8,4.7,10.5,10.5,10.5
	h93.5V497H311.6v-71.8c0-4.1-3.4-7.5-7.5-7.5c-4.1,0-7.5,3.4-7.5,7.5V497H215V119.6c0-4.1-3.4-7.5-7.5-7.5c-4.1,0-7.5,3.4-7.5,7.5
	V497H74.8v-39.7h93.5c5.8,0,10.5-4.7,10.5-10.5v-26.7c0-5.8-4.7-10.5-10.5-10.5h-9.8v-30.9c0-6.3-5.2-11.5-11.5-11.5H99.2
	c-6.3,0-11.5,5.2-11.5,11.5v30.9H74.8V326h93.5c5.8,0,10.5-4.7,10.5-10.5v-26.7c0-5.8-4.7-10.5-10.5-10.5h-9.8v-30.9
	c0-6.3-5.2-11.5-11.5-11.5H99.2c-6.3,0-11.5,5.2-11.5,11.5v30.9H74.8v-83.6h93.5c5.8,0,10.5-4.7,10.5-10.5v-26.7
	c0-5.8-4.7-10.5-10.5-10.5h-9.8v-30.9c0-6.3-5.2-11.5-11.5-11.5H99.2c-6.3,0-11.5,5.2-11.5,11.5v30.9H74.8V66.7H200v23
	c0,4.1,3.4,7.5,7.5,7.5c4.1,0,7.5-3.4,7.5-7.5V15h81.7v380.2c0,4.1,3.4,7.5,7.5,7.5s7.5-3.4,7.5-7.5V11.5c0-6.3-5.2-11.5-11.5-11.5
	h-88.7C205.1,0,200,5.2,200,11.5v40.2H73.3c-7.4,0-13.5,6.1-13.5,13.5v81.9h-8.3c-5.8,0-10.5,4.7-10.5,10.5v26.7
	c0,5.8,4.7,10.5,10.5,10.5h8.3v83.6h-8.3c-5.8,0-10.5,4.7-10.5,10.5v26.7c0,5.8,4.7,10.5,10.5,10.5h8.3v83.6h-8.3
	c-5.8,0-10.5,4.7-10.5,10.5v26.7c0,5.8,4.7,10.5,10.5,10.5h8.3v41.2c0,7.4,6.1,13.5,13.5,13.5h365c7.4,0,13.5-6.1,13.5-13.5v-41.2
	h8.3c5.8,0,10.5-4.7,10.5-10.5v-26.7c0-5.8-4.7-10.5-10.5-10.5h-8.3V326h8.3c5.8,0,10.5-4.7,10.5-10.5v-26.7
	c0-5.8-4.7-10.5-10.5-10.5h-8.3v-83.6H460.1z M102.7,119.7h40.8v27.4h-40.8V119.7z M56,162.1h107.8v17.7c-17.9,0-95.8,0-107.8,0
	V162.1z M102.7,251h40.8v27.4h-40.8V251z M56,293.4h107.8V311H56V293.4z M102.7,382.3h40.8v27.4h-40.8V382.3z M56,424.6h107.8v17.7
	H56V424.6z M368.2,382.3H409v27.4h-40.8V382.3z M455.6,442.3H347.8v-17.7h107.8V442.3z M368.2,251H409v27.4h-40.8V251z M455.6,311
	H347.8v-17.7h107.8V311z M368.2,119.7H409v27.4h-40.8V119.7z M347.8,162.1h107.8v17.7c-13.7,0-85.3,0-107.8,0V162.1z"/>
</svg>
