<?xml version="1.0" encoding="utf-8"?>
<!-- Generator: Adobe Illustrator 24.0.0, SVG Export Plug-In . SVG Version: 6.00 Build 0)  -->
<svg version="1.1" id="Capa_1" xmlns="http://www.w3.org/2000/svg" xmlns:xlink="http://www.w3.org/1999/xlink" x="0px" y="0px"
	 viewBox="0 0 512 512" style="enable-background:new 0 0 512 512;" xml:space="preserve">
<style type="text/css">
	.st0{fill:#1F87AD;}
</style>
<path class="st0" d="M0,94.7h15V16h79.1v35.1H51.6v15h42.6v29.5H71.6v15h22.5v29.5H51.6v15h42.6v29.5H71.6v15h22.5v29.5H51.6v15
	h42.6v29.5H71.6v15h22.5v29.5H51.6v15h42.6v29.5H71.6v15h22.5v29.5H51.6v15h42.6v29.5H71.6v15h22.5v31.1H15V109.7H0v403.2h109.2V1H0
	V94.7z"/>
<path class="st0" d="M130.1,209.3l35.9,35.9l28.3-28.3v168.8h253.5v-80.5h-15v65.5h-56.1V230.4H265.5v140.2h-56.1V201.9L321.1,90.2
	l111.7,111.7v88.2h15v-73.2l28.3,28.3l35.9-35.9l-109-109l-10.6,10.6l98.3,98.3l-14.7,14.7l-155-155l-155,155l-14.7-14.7L321.1,39.6
	l60.7,60.7l10.6-10.6l-71.4-71.4l-78.3,78.3V60.8h11.9V10h-86.6v50.8H180v98.6L130.1,209.3z M280.5,245.4h81.1v125.2h-81.1V245.4z
	 M227.7,111.7L195,144.4V60.8h32.7V111.7z M183.1,25h56.5v20.7h-56.5V25z"/>
<path class="st0" d="M466,403.5l17.2,17.2H154.9l17.2-17.2l-10.6-10.6l-35.4,35.4l35.4,35.4l10.6-10.6l-17.2-17.2h328.4L466,453
	l10.6,10.6l35.4-35.4l-35.4-35.4L466,403.5z"/>
<path class="st0" d="M341.6,461.8h15v15h-15V461.8z"/>
<path class="st0" d="M311.5,461.8h15v15h-15V461.8z"/>
<path class="st0" d="M281.5,461.8h15v15h-15V461.8z"/>
<path class="st0" d="M315.7,127.4l10.6-10.6l31.6,31.6L347.4,159L315.7,127.4z"/>
<path class="st0" d="M379.2,190.9l10.6-10.6l10.6,10.6l-10.6,10.6L379.2,190.9z"/>
<path class="st0" d="M358,169.6l10.6-10.6l10.6,10.6l-10.6,10.6L358,169.6z"/>
<path class="st0" d="M296.5,300.5h15v15h-15V300.5z"/>
</svg>
