<?xml version="1.0" encoding="utf-8"?>
<!-- Generator: Adobe Illustrator 24.0.0, SVG Export Plug-In . SVG Version: 6.00 Build 0)  -->
<svg version="1.1" id="Capa_1" xmlns="http://www.w3.org/2000/svg" xmlns:xlink="http://www.w3.org/1999/xlink" x="0px" y="0px"
	 viewBox="0 0 512 512" style="enable-background:new 0 0 512 512;" xml:space="preserve">
<style type="text/css">
	.st0{fill:#1F87AD;}
</style>
<path class="st0" d="M445.8,230.7h-75.4L357.5,190c-1.3-4.3-4.6-7.5-8.7-8.8v-16.1C348.9,74,274.9,0,183.8,0c-0.2,0-0.3,0-0.5,0
	C92.5,0.3,18.7,75,18.7,166.6V502c0,5.5,4.5,10,10,10h21.6c5.5,0,10-4.5,10-10V165.1c0-28.8,10.2-56.9,28.6-79
	c2.7-3.2,2.2-7.9-1-10.6c-3.2-2.7-7.9-2.2-10.6,1c-20.7,24.8-32.1,56.3-32.1,88.6V497H33.7V166.6c0-83.4,67.1-151.4,149.7-151.6h0.4
	c82.8,0,150.1,67.3,150.1,150.1v15.4h-11.5v-14c0-76.8-61.8-139.6-137.8-140.1c-28.8-0.1-56.5,8.5-80.1,25
	c-3.4,2.4-4.2,7.1-1.8,10.4c2.4,3.4,7.1,4.2,10.4,1.8c21-14.7,45.7-22.4,71.4-22.3c67.8,0.4,122.9,56.5,122.9,125.1v14.7
	c-4.1,1.4-7.3,4.6-8.7,8.8l-12.8,40.6h-75.4c-26.2,0-47.5,21.3-47.5,47.5v8.2c0,6.1,4.9,11,11,11h2.5v14.8c0,6.6,5.4,12,12,12h6.4
	c4.1,0,7.5-3.4,7.5-7.5s-3.4-7.5-7.5-7.5h-3.5v-11.8h222c4.1,0,7.5-3.4,7.5-7.5s-3.4-7.5-7.5-7.5H177.9v-4.2
	c0-17.9,14.6-32.5,32.5-32.5h235.3c17.9,0,32.5,14.6,32.5,32.5v4.2h-29.9c-4.1,0-7.5,3.4-7.5,7.5s3.4,7.5,7.5,7.5h16.4v11.8H229.9
	c-4.1,0-7.5,3.4-7.5,7.5s3.4,7.5,7.5,7.5h237.8c6.6,0,12-5.4,12-12v-14.8h2.5c6.1,0,11-4.9,11-11v-8.2
	C493.3,252,472,230.7,445.8,230.7L445.8,230.7z M301.6,230.7l11.1-35.2h30.8l11.1,35.2H301.6z"/>
<path class="st0" d="M328.4,338.2c-11,0-20,9-20,20v28.5c0,11,9,20,20,20s20-9,20-20v-28.5C348.4,347.2,339.5,338.2,328.4,338.2z
	 M333.4,386.6c0,2.8-2.2,5-5,5s-5-2.2-5-5v-28.5c0-2.8,2.2-5,5-5s5,2.2,5,5V386.6z"/>
<path class="st0" d="M328.4,424.1c-11,0-20,9-20,20v28.5c0,11,9,20,20,20s20-9,20-20v-28.5C348.4,433.1,339.5,424.1,328.4,424.1z
	 M333.4,472.6c0,2.8-2.2,5-5,5s-5-2.2-5-5v-28.5c0-2.8,2.2-5,5-5s5,2.2,5,5V472.6z"/>
<path class="st0" d="M268.4,357.6c-11,0-20,9-20,20v28.5c0,11,9,20,20,20s20-9,20-20v-28.5C288.4,366.6,279.5,357.6,268.4,357.6z
	 M273.4,406.1c0,2.8-2.2,5-5,5s-5-2.2-5-5v-28.5c0-2.8,2.2-5,5-5s5,2.2,5,5V406.1z"/>
<path class="st0" d="M268.4,443.5c-11,0-20,9-20,20V492c0,11,9,20,20,20s20-9,20-20v-28.5C288.4,452.5,279.5,443.5,268.4,443.5z
	 M273.4,492c0,2.8-2.2,5-5,5s-5-2.2-5-5v-28.5c0-2.8,2.2-5,5-5s5,2.2,5,5V492z"/>
<path class="st0" d="M208.4,338.2c-11,0-20,9-20,20v28.5c0,11,9,20,20,20s20-9,20-20v-28.5C228.4,347.2,219.5,338.2,208.4,338.2z
	 M213.4,386.6c0,2.8-2.2,5-5,5s-5-2.2-5-5v-28.5c0-2.8,2.2-5,5-5s5,2.2,5,5V386.6z"/>
<path class="st0" d="M208.4,424.1c-11,0-20,9-20,20v28.5c0,11,9,20,20,20s20-9,20-20v-28.5C228.4,433.1,219.5,424.1,208.4,424.1z
	 M213.4,472.6c0,2.8-2.2,5-5,5s-5-2.2-5-5v-28.5c0-2.8,2.2-5,5-5s5,2.2,5,5V472.6z"/>
<path class="st0" d="M388.4,357.6c-11,0-20,9-20,20v28.5c0,11,9,20,20,20s20-9,20-20v-28.5C408.4,366.6,399.5,357.6,388.4,357.6z
	 M393.4,406.1c0,2.8-2.2,5-5,5s-5-2.2-5-5v-28.5c0-2.8,2.2-5,5-5s5,2.2,5,5V406.1z"/>
<path class="st0" d="M388.4,443.5c-11,0-20,9-20,20V492c0,11,9,20,20,20s20-9,20-20v-28.5C408.4,452.5,399.5,443.5,388.4,443.5z
	 M393.4,492c0,2.8-2.2,5-5,5s-5-2.2-5-5v-28.5c0-2.8,2.2-5,5-5s5,2.2,5,5V492z"/>
<path class="st0" d="M448.4,338.2c-11,0-20,9-20,20v28.5c0,11,9,20,20,20s20-9,20-20v-28.5C468.4,347.2,459.5,338.2,448.4,338.2z
	 M453.4,386.6c0,2.8-2.2,5-5,5s-5-2.2-5-5v-28.5c0-2.8,2.2-5,5-5s5,2.2,5,5V386.6z"/>
<path class="st0" d="M448.4,424.1c-11,0-20,9-20,20v28.5c0,11,9,20,20,20s20-9,20-20v-28.5C468.4,433.1,459.5,424.1,448.4,424.1z
	 M453.4,472.6c0,2.8-2.2,5-5,5s-5-2.2-5-5v-28.5c0-2.8,2.2-5,5-5s5,2.2,5,5V472.6z"/>
</svg>
