<!-- Generator: Adobe Illustrator 24.0.0, SVG Export Plug-In  -->
<svg version="1.1" xmlns="http://www.w3.org/2000/svg" xmlns:xlink="http://www.w3.org/1999/xlink" x="0px" y="0px"
	 width="3378.102px" height="2801.571px" viewBox="0 0 3378.102 2801.571" style="enable-background:new 0 0 3378.102 2801.571;"
	 xml:space="preserve">
<style type="text/css">
	.st0{fill:url(#SVGID_1_);}
	.st1{fill:url(#SVGID_2_);}
	.st2{fill:url(#SVGID_3_);}
	.st3{fill:url(#SVGID_4_);}
	.st4{fill:url(#SVGID_5_);}
	.st5{fill:url(#SVGID_6_);}
	.st6{fill:url(#SVGID_7_);}
	.st7{fill:url(#SVGID_8_);}
	.st8{fill:url(#SVGID_9_);}
	.st9{fill:url(#SVGID_10_);}
	.st10{fill:url(#SVGID_11_);}
	.st11{fill:url(#SVGID_12_);}
	.st12{fill:url(#SVGID_13_);}
	.st13{fill:url(#SVGID_14_);}
	.st14{fill:url(#SVGID_15_);}
	.st15{fill:url(#SVGID_16_);}
	.st16{fill:url(#SVGID_17_);}
	.st17{fill:url(#SVGID_18_);}
	.st18{fill:url(#SVGID_19_);}
	.st19{fill:url(#SVGID_20_);}
	.st20{fill:url(#SVGID_21_);}
	.st21{fill:url(#SVGID_22_);}
	.st22{fill:url(#SVGID_23_);}
	.st23{fill:url(#SVGID_24_);}
	.st24{fill:url(#SVGID_25_);}
	.st25{fill:url(#SVGID_26_);}
	.st26{fill:url(#SVGID_27_);}
	.st27{fill:url(#SVGID_28_);}
	.st28{fill:url(#SVGID_29_);}
	.st29{fill:url(#SVGID_30_);}
	.st30{fill:url(#SVGID_31_);}
	.st31{fill:url(#SVGID_32_);}
	.st32{fill:url(#SVGID_33_);}
	.st33{fill:url(#SVGID_34_);}
	.st34{fill:url(#SVGID_35_);}
	.st35{fill:url(#SVGID_36_);}
	.st36{fill:url(#SVGID_37_);}
	.st37{fill:url(#SVGID_38_);}
	.st38{fill:url(#SVGID_39_);}
	.st39{fill:url(#SVGID_40_);}
	.st40{fill:url(#SVGID_41_);}
	.st41{fill:url(#SVGID_42_);}
	.st42{fill:url(#SVGID_43_);}
	.st43{fill:url(#SVGID_44_);}
	.st44{fill:url(#SVGID_45_);}
	.st45{fill:url(#SVGID_46_);}
	.st46{fill:url(#SVGID_47_);}
	.st47{fill:url(#SVGID_48_);}
	.st48{fill:url(#SVGID_49_);}
	.st49{fill:url(#SVGID_50_);}
	.st50{fill:url(#SVGID_51_);}
	.st51{fill:url(#SVGID_52_);}
	.st52{fill:url(#SVGID_53_);}
	.st53{fill:url(#SVGID_54_);}
	.st54{fill:url(#SVGID_55_);}
	.st55{fill:url(#SVGID_56_);}
	.st56{fill:url(#SVGID_57_);}
	.st57{fill:url(#SVGID_58_);}
	.st58{fill:url(#SVGID_59_);}
	.st59{fill:url(#SVGID_60_);}
	.st60{fill:url(#SVGID_61_);}
	.st61{fill:url(#SVGID_62_);}
</style>
<defs>
</defs>
<g>
	<g>
		<g>
			<linearGradient id="SVGID_1_" gradientUnits="userSpaceOnUse" x1="1738.5962" y1="1907.7533" x2="1738.5962" y2="1134.4093">
				<stop  offset="0" style="stop-color:#B4681F"/>
				<stop  offset="0.0833" style="stop-color:#CE8C32"/>
				<stop  offset="0.1792" style="stop-color:#CE8C32"/>
				<stop  offset="0.3762" style="stop-color:#DFB259"/>
				<stop  offset="0.4844" style="stop-color:#FDEF9C"/>
				<stop  offset="0.7626" style="stop-color:#DFB259"/>
				<stop  offset="0.8956" style="stop-color:#CE8C32"/>
				<stop  offset="1" style="stop-color:#C27C27"/>
			</linearGradient>
			<path class="st0" d="M1789.407,1660.258c0.153-0.416,0.366-0.803,0.542-1.208l173.781,248.703h79.008l-180.99-261.825
				c0.131-0.022,0.252-0.068,0.383-0.092c23.652-4.067,45.592-10.991,65.826-20.815c20.326-9.89,37.896-22.23,52.709-37.053
				c14.813-14.813,26.278-32.251,34.417-52.304c8.117-20.042,12.187-42.852,12.187-68.418c0-27.317-5.229-52.162-15.666-74.534
				c-10.459-22.372-25.271-41.55-44.438-57.533c-19.167-15.983-42.25-28.334-69.272-37.043c-3.271-1.054-6.744-1.842-10.114-2.769
				c-1.165-21.599-5.765-41.584-14.238-59.742c-9.824-21.026-23.761-39.056-41.791-54.087
				c-18.007-15.021-39.712-26.639-65.115-34.822c-25.402-8.194-53.934-12.307-85.594-12.307h-246.586v773.344h64.721v-422.741
				h45.423v422.741h68.834v-249.802h23.291l193.385,249.802h84.522l-194.468-249.802h67.521L1789.407,1660.258z M1844.462,1419.209
				c13.916-13.927,24.702-30.314,32.36-49.175c1.171-2.892,2.084-5.961,3.08-8.976c14.003,5.057,26.841,11.234,37.486,19.511
				c27.372,21.278,41.068,51.144,41.068,89.609c0,19.823-3.938,37.601-11.793,53.343c-7.877,15.732-18.795,28.991-32.754,39.778
				c-13.981,10.776-30.588,19.101-49.799,24.921c-12.482,3.785-25.96,5.882-39.903,7.208l-91.573-121.716
				c22.383-3.818,43.147-10.371,62.27-19.659C1814.005,1444.764,1830.525,1433.146,1844.462,1419.209z M1544.598,1285.052v142.624
				h-45.423v-233.469h177.38c46.538,0,82.684,10.01,108.415,30.008c19.971,15.521,31.967,36.055,36.435,61.321
				c-4.83-0.192-9.578-0.484-14.556-0.484H1544.598z M1613.432,1596.961v-111.948v-57.336v-79.019h188.67
				c5.032,0,9.447,0.591,14.249,0.811c-1.182,3.108-2.401,6.199-3.878,9.155c-7.395,14.791-17.657,27.262-30.785,37.393
				c-13.15,10.141-28.75,17.963-46.823,23.444c-18.073,5.47-37.765,8.216-59.119,8.216h-23.368v57.336h10.634l83.548,111.948
				H1613.432z"/>
		</g>
		<linearGradient id="SVGID_2_" gradientUnits="userSpaceOnUse" x1="1689.0514" y1="1595.7651" x2="1689.0514" y2="0">
			<stop  offset="0" style="stop-color:#B4681F"/>
			<stop  offset="0.0833" style="stop-color:#CE8C32"/>
			<stop  offset="0.1792" style="stop-color:#CE8C32"/>
			<stop  offset="0.3762" style="stop-color:#DFB259"/>
			<stop  offset="0.4844" style="stop-color:#FDEF9C"/>
			<stop  offset="0.7626" style="stop-color:#DFB259"/>
			<stop  offset="0.8956" style="stop-color:#CE8C32"/>
			<stop  offset="1" style="stop-color:#C27C27"/>
		</linearGradient>
		<path class="st1" d="M2532.334,1193.563v-56.033V156.491V0H846.662v156.491v981.039v56.033h-1.483v402.202h109.008v-216.34
			l735.361-656.356l734.367,655.547v217.149h109.009v-402.202H2532.334z M953.332,209.84v-53.349v-49.818h1472.331v49.818v53.349
			v689.484l-712.536-636.138l-23.58-21.02l-23.581,21.02L953.332,899.324V209.84z M1689.548,580.037l-735.361,656.37v-42.844h-0.855
			v-151.275l736.215-657.061l736.116,657.061v151.275h-1.749v42.046L1689.548,580.037z"/>
	</g>
	<g>
		<g>
			<path d="M442.033,2704.668h-79.431l-15.659,36.765h-30.41l71.487-158.86h29.049l71.715,158.86h-30.865L442.033,2704.668z
				 M432.274,2681.519l-29.956-69.445l-29.729,69.445H432.274z"/>
			<path d="M495.588,2724.638l10.212-22.921c12.709,10.212,32.907,17.475,52.424,17.475c24.737,0,35.177-8.852,35.177-20.652
				c0-34.269-94.408-11.801-94.408-70.807c0-25.645,20.425-47.431,63.998-47.431c19.062,0,39.034,4.992,52.878,14.07l-9.305,22.921
				c-14.298-8.396-29.957-12.481-43.801-12.481c-24.51,0-34.495,9.531-34.495,21.56c0,33.814,94.182,11.801,94.182,70.126
				c0,25.417-20.652,47.204-64.226,47.204C533.487,2743.702,508.75,2735.986,495.588,2724.638z"/>
			<path d="M770.868,2716.695v24.737H651.723v-158.86H767.69v24.736h-86.466v41.304h76.708v24.283h-76.708v43.8H770.868z"/>
			<path d="M790.383,2724.638l10.212-22.921c12.709,10.212,32.907,17.475,52.424,17.475c24.737,0,35.177-8.852,35.177-20.652
				c0-34.269-94.408-11.801-94.408-70.807c0-25.645,20.425-47.431,63.998-47.431c19.062,0,39.034,4.992,52.878,14.07l-9.305,22.921
				c-14.298-8.396-29.957-12.481-43.801-12.481c-24.51,0-34.495,9.531-34.495,21.56c0,33.814,94.182,11.801,94.182,70.126
				c0,25.417-20.652,47.204-64.226,47.204C828.282,2743.702,803.545,2735.986,790.383,2724.638z"/>
			<path d="M935.171,2662.002c0-46.978,36.312-81.699,85.558-81.699c49.247,0,85.559,34.495,85.559,81.699
				c0,47.205-36.312,81.7-85.559,81.7C971.482,2743.702,935.171,2708.979,935.171,2662.002z M1076.558,2662.002
				c0-32.453-23.829-55.828-55.829-55.828c-31.999,0-55.828,23.375-55.828,55.828s23.829,55.828,55.828,55.828
				C1052.729,2717.83,1076.558,2694.455,1076.558,2662.002z"/>
			<path d="M1241.541,2741.432l-32.453-46.523c-2.043,0.227-4.085,0.227-6.128,0.227h-35.856v46.297h-29.503v-158.86h65.359
				c41.758,0,67.63,21.332,67.63,56.509c0,24.056-12.255,41.758-33.815,50.154l36.538,52.197H1241.541z M1201.599,2607.536h-34.495
				v63.317h34.495c25.871,0,39.261-11.802,39.261-31.772C1240.859,2619.109,1227.47,2607.536,1201.599,2607.536z"/>
			<path d="M1366.124,2582.572h29.503v158.86h-29.503V2582.572z"/>
			<path d="M1579.674,2582.572v158.86h-24.283l-87.601-107.571v107.571h-29.275v-158.86h24.283l87.6,107.571v-107.571H1579.674z"/>
			<path d="M1768.261,2741.432l-0.228-105.302l-52.196,87.146h-13.163l-52.197-85.785v103.94h-28.141v-158.86h24.283l63.09,105.302
				l61.956-105.302h24.283l0.227,158.86H1768.261z"/>
			<path d="M1827.714,2662.002c0-46.978,36.312-81.699,85.558-81.699c49.247,0,85.559,34.495,85.559,81.699
				c0,47.205-36.312,81.7-85.559,81.7C1864.025,2743.702,1827.714,2708.979,1827.714,2662.002z M1969.101,2662.002
				c0-32.453-23.829-55.828-55.829-55.828c-31.999,0-55.828,23.375-55.828,55.828s23.829,55.828,55.828,55.828
				C1945.271,2717.83,1969.101,2694.455,1969.101,2662.002z"/>
			<path d="M2171.304,2698.313c0,27.233-21.333,43.119-62.183,43.119h-78.977v-158.86h74.438c38.126,0,58.552,16.112,58.552,41.304
				c0,16.34-8.17,28.367-20.426,34.949C2159.729,2664.271,2171.304,2677.661,2171.304,2698.313z M2059.646,2605.719v43.801h41.758
				c20.426,0,31.999-7.263,31.999-21.787c0-14.751-11.573-22.014-31.999-22.014H2059.646z M2141.574,2695.363
				c0-15.887-12.028-22.922-34.269-22.922h-47.659v45.843h47.659C2129.546,2718.284,2141.574,2711.249,2141.574,2695.363z"/>
			<path d="M2202.843,2582.572h29.503v158.86h-29.503V2582.572z"/>
			<path d="M2275.233,2582.572h29.503v133.896h83.061v24.964h-112.563V2582.572z"/>
			<path d="M2411.171,2582.572h29.503v158.86h-29.503V2582.572z"/>
			<path d="M2586.594,2704.668h-79.431l-15.659,36.765h-30.41l71.487-158.86h29.049l71.715,158.86h-30.865L2586.594,2704.668z
				 M2576.835,2681.519l-29.956-69.445l-29.729,69.445H2576.835z"/>
			<path d="M2757.479,2741.432l-32.453-46.523c-2.043,0.227-4.085,0.227-6.128,0.227h-35.856v46.297h-29.503v-158.86h65.359
				c41.758,0,67.63,21.332,67.63,56.509c0,24.056-12.255,41.758-33.815,50.154l36.538,52.197H2757.479z M2717.536,2607.536h-34.495
				v63.317h34.495c25.871,0,39.261-11.802,39.261-31.772C2756.797,2619.109,2743.407,2607.536,2717.536,2607.536z"/>
			<path d="M2819.43,2582.572h29.502v158.86h-29.502V2582.572z"/>
			<path d="M2880.473,2662.002c0-46.978,36.312-81.699,85.558-81.699c49.247,0,85.559,34.495,85.559,81.699
				c0,47.205-36.312,81.7-85.559,81.7C2916.784,2743.702,2880.473,2708.979,2880.473,2662.002z M3021.859,2662.002
				c0-32.453-23.829-55.828-55.829-55.828c-31.999,0-55.828,23.375-55.828,55.828s23.829,55.828,55.828,55.828
				C2998.03,2717.83,3021.859,2694.455,3021.859,2662.002z"/>
		</g>
		<g>
			<linearGradient id="SVGID_3_" gradientUnits="userSpaceOnUse" x1="316.5332" y1="2662.0022" x2="3051.5889" y2="2662.0022">
				<stop  offset="0" style="stop-color:#B4681F"/>
				<stop  offset="0.0833" style="stop-color:#CE8C32"/>
				<stop  offset="0.1792" style="stop-color:#CE8C32"/>
				<stop  offset="0.3762" style="stop-color:#DFB259"/>
				<stop  offset="0.4844" style="stop-color:#FDEF9C"/>
				<stop  offset="0.7626" style="stop-color:#DFB259"/>
				<stop  offset="0.8956" style="stop-color:#CE8C32"/>
				<stop  offset="1" style="stop-color:#C27C27"/>
			</linearGradient>
			<path class="st2" d="M442.033,2704.668h-79.431l-15.659,36.765h-30.41l71.487-158.86h29.049l71.715,158.86h-30.865
				L442.033,2704.668z M432.274,2681.519l-29.956-69.445l-29.729,69.445H432.274z"/>
			<linearGradient id="SVGID_4_" gradientUnits="userSpaceOnUse" x1="316.5332" y1="2662.0022" x2="3051.5889" y2="2662.0022">
				<stop  offset="0" style="stop-color:#B4681F"/>
				<stop  offset="0.0833" style="stop-color:#CE8C32"/>
				<stop  offset="0.1792" style="stop-color:#CE8C32"/>
				<stop  offset="0.3762" style="stop-color:#DFB259"/>
				<stop  offset="0.4844" style="stop-color:#FDEF9C"/>
				<stop  offset="0.7626" style="stop-color:#DFB259"/>
				<stop  offset="0.8956" style="stop-color:#CE8C32"/>
				<stop  offset="1" style="stop-color:#C27C27"/>
			</linearGradient>
			<path class="st3" d="M495.588,2724.638l10.212-22.921c12.709,10.212,32.907,17.475,52.424,17.475
				c24.737,0,35.177-8.852,35.177-20.652c0-34.269-94.408-11.801-94.408-70.807c0-25.645,20.425-47.431,63.998-47.431
				c19.062,0,39.034,4.992,52.878,14.07l-9.305,22.921c-14.298-8.396-29.957-12.481-43.801-12.481
				c-24.51,0-34.495,9.531-34.495,21.56c0,33.814,94.182,11.801,94.182,70.126c0,25.417-20.652,47.204-64.226,47.204
				C533.487,2743.702,508.75,2735.986,495.588,2724.638z"/>
			<linearGradient id="SVGID_5_" gradientUnits="userSpaceOnUse" x1="316.5332" y1="2662.0022" x2="3051.5889" y2="2662.0022">
				<stop  offset="0" style="stop-color:#B4681F"/>
				<stop  offset="0.0833" style="stop-color:#CE8C32"/>
				<stop  offset="0.1792" style="stop-color:#CE8C32"/>
				<stop  offset="0.3762" style="stop-color:#DFB259"/>
				<stop  offset="0.4844" style="stop-color:#FDEF9C"/>
				<stop  offset="0.7626" style="stop-color:#DFB259"/>
				<stop  offset="0.8956" style="stop-color:#CE8C32"/>
				<stop  offset="1" style="stop-color:#C27C27"/>
			</linearGradient>
			<path class="st4" d="M770.868,2716.695v24.737H651.723v-158.86H767.69v24.736h-86.466v41.304h76.708v24.283h-76.708v43.8H770.868
				z"/>
			<linearGradient id="SVGID_6_" gradientUnits="userSpaceOnUse" x1="316.5332" y1="2662.0022" x2="3051.5889" y2="2662.0022">
				<stop  offset="0" style="stop-color:#B4681F"/>
				<stop  offset="0.0833" style="stop-color:#CE8C32"/>
				<stop  offset="0.1792" style="stop-color:#CE8C32"/>
				<stop  offset="0.3762" style="stop-color:#DFB259"/>
				<stop  offset="0.4844" style="stop-color:#FDEF9C"/>
				<stop  offset="0.7626" style="stop-color:#DFB259"/>
				<stop  offset="0.8956" style="stop-color:#CE8C32"/>
				<stop  offset="1" style="stop-color:#C27C27"/>
			</linearGradient>
			<path class="st5" d="M790.383,2724.638l10.212-22.921c12.709,10.212,32.907,17.475,52.424,17.475
				c24.737,0,35.177-8.852,35.177-20.652c0-34.269-94.408-11.801-94.408-70.807c0-25.645,20.425-47.431,63.998-47.431
				c19.062,0,39.034,4.992,52.878,14.07l-9.305,22.921c-14.298-8.396-29.957-12.481-43.801-12.481
				c-24.51,0-34.495,9.531-34.495,21.56c0,33.814,94.182,11.801,94.182,70.126c0,25.417-20.652,47.204-64.226,47.204
				C828.282,2743.702,803.545,2735.986,790.383,2724.638z"/>
			<linearGradient id="SVGID_7_" gradientUnits="userSpaceOnUse" x1="316.5332" y1="2662.0022" x2="3051.5889" y2="2662.0022">
				<stop  offset="0" style="stop-color:#B4681F"/>
				<stop  offset="0.0833" style="stop-color:#CE8C32"/>
				<stop  offset="0.1792" style="stop-color:#CE8C32"/>
				<stop  offset="0.3762" style="stop-color:#DFB259"/>
				<stop  offset="0.4844" style="stop-color:#FDEF9C"/>
				<stop  offset="0.7626" style="stop-color:#DFB259"/>
				<stop  offset="0.8956" style="stop-color:#CE8C32"/>
				<stop  offset="1" style="stop-color:#C27C27"/>
			</linearGradient>
			<path class="st6" d="M935.171,2662.002c0-46.978,36.312-81.699,85.558-81.699c49.247,0,85.559,34.495,85.559,81.699
				c0,47.205-36.312,81.7-85.559,81.7C971.482,2743.702,935.171,2708.979,935.171,2662.002z M1076.558,2662.002
				c0-32.453-23.829-55.828-55.829-55.828c-31.999,0-55.828,23.375-55.828,55.828s23.829,55.828,55.828,55.828
				C1052.729,2717.83,1076.558,2694.455,1076.558,2662.002z"/>
			<linearGradient id="SVGID_8_" gradientUnits="userSpaceOnUse" x1="316.5332" y1="2662.0022" x2="3051.5889" y2="2662.0022">
				<stop  offset="0" style="stop-color:#B4681F"/>
				<stop  offset="0.0833" style="stop-color:#CE8C32"/>
				<stop  offset="0.1792" style="stop-color:#CE8C32"/>
				<stop  offset="0.3762" style="stop-color:#DFB259"/>
				<stop  offset="0.4844" style="stop-color:#FDEF9C"/>
				<stop  offset="0.7626" style="stop-color:#DFB259"/>
				<stop  offset="0.8956" style="stop-color:#CE8C32"/>
				<stop  offset="1" style="stop-color:#C27C27"/>
			</linearGradient>
			<path class="st7" d="M1241.541,2741.432l-32.453-46.523c-2.043,0.227-4.085,0.227-6.128,0.227h-35.856v46.297h-29.503v-158.86
				h65.359c41.758,0,67.63,21.332,67.63,56.509c0,24.056-12.255,41.758-33.815,50.154l36.538,52.197H1241.541z M1201.599,2607.536
				h-34.495v63.317h34.495c25.871,0,39.261-11.802,39.261-31.772C1240.859,2619.109,1227.47,2607.536,1201.599,2607.536z"/>
			<linearGradient id="SVGID_9_" gradientUnits="userSpaceOnUse" x1="316.5332" y1="2662.0022" x2="3051.5889" y2="2662.0022">
				<stop  offset="0" style="stop-color:#B4681F"/>
				<stop  offset="0.0833" style="stop-color:#CE8C32"/>
				<stop  offset="0.1792" style="stop-color:#CE8C32"/>
				<stop  offset="0.3762" style="stop-color:#DFB259"/>
				<stop  offset="0.4844" style="stop-color:#FDEF9C"/>
				<stop  offset="0.7626" style="stop-color:#DFB259"/>
				<stop  offset="0.8956" style="stop-color:#CE8C32"/>
				<stop  offset="1" style="stop-color:#C27C27"/>
			</linearGradient>
			<path class="st8" d="M1366.124,2582.572h29.503v158.86h-29.503V2582.572z"/>
			<linearGradient id="SVGID_10_" gradientUnits="userSpaceOnUse" x1="316.5332" y1="2662.0022" x2="3051.5889" y2="2662.0022">
				<stop  offset="0" style="stop-color:#B4681F"/>
				<stop  offset="0.0833" style="stop-color:#CE8C32"/>
				<stop  offset="0.1792" style="stop-color:#CE8C32"/>
				<stop  offset="0.3762" style="stop-color:#DFB259"/>
				<stop  offset="0.4844" style="stop-color:#FDEF9C"/>
				<stop  offset="0.7626" style="stop-color:#DFB259"/>
				<stop  offset="0.8956" style="stop-color:#CE8C32"/>
				<stop  offset="1" style="stop-color:#C27C27"/>
			</linearGradient>
			<path class="st9" d="M1579.674,2582.572v158.86h-24.283l-87.601-107.571v107.571h-29.275v-158.86h24.283l87.6,107.571v-107.571
				H1579.674z"/>
			<linearGradient id="SVGID_11_" gradientUnits="userSpaceOnUse" x1="316.5332" y1="2662.0022" x2="3051.5889" y2="2662.0022">
				<stop  offset="0" style="stop-color:#B4681F"/>
				<stop  offset="0.0833" style="stop-color:#CE8C32"/>
				<stop  offset="0.1792" style="stop-color:#CE8C32"/>
				<stop  offset="0.3762" style="stop-color:#DFB259"/>
				<stop  offset="0.4844" style="stop-color:#FDEF9C"/>
				<stop  offset="0.7626" style="stop-color:#DFB259"/>
				<stop  offset="0.8956" style="stop-color:#CE8C32"/>
				<stop  offset="1" style="stop-color:#C27C27"/>
			</linearGradient>
			<path class="st10" d="M1768.261,2741.432l-0.228-105.302l-52.196,87.146h-13.163l-52.197-85.785v103.94h-28.141v-158.86h24.283
				l63.09,105.302l61.956-105.302h24.283l0.227,158.86H1768.261z"/>
			<linearGradient id="SVGID_12_" gradientUnits="userSpaceOnUse" x1="316.5332" y1="2662.0022" x2="3051.5889" y2="2662.0022">
				<stop  offset="0" style="stop-color:#B4681F"/>
				<stop  offset="0.0833" style="stop-color:#CE8C32"/>
				<stop  offset="0.1792" style="stop-color:#CE8C32"/>
				<stop  offset="0.3762" style="stop-color:#DFB259"/>
				<stop  offset="0.4844" style="stop-color:#FDEF9C"/>
				<stop  offset="0.7626" style="stop-color:#DFB259"/>
				<stop  offset="0.8956" style="stop-color:#CE8C32"/>
				<stop  offset="1" style="stop-color:#C27C27"/>
			</linearGradient>
			<path class="st11" d="M1827.714,2662.002c0-46.978,36.312-81.699,85.558-81.699c49.247,0,85.559,34.495,85.559,81.699
				c0,47.205-36.312,81.7-85.559,81.7C1864.025,2743.702,1827.714,2708.979,1827.714,2662.002z M1969.101,2662.002
				c0-32.453-23.829-55.828-55.829-55.828c-31.999,0-55.828,23.375-55.828,55.828s23.829,55.828,55.828,55.828
				C1945.271,2717.83,1969.101,2694.455,1969.101,2662.002z"/>
			<linearGradient id="SVGID_13_" gradientUnits="userSpaceOnUse" x1="316.5332" y1="2662.0022" x2="3051.5889" y2="2662.0022">
				<stop  offset="0" style="stop-color:#B4681F"/>
				<stop  offset="0.0833" style="stop-color:#CE8C32"/>
				<stop  offset="0.1792" style="stop-color:#CE8C32"/>
				<stop  offset="0.3762" style="stop-color:#DFB259"/>
				<stop  offset="0.4844" style="stop-color:#FDEF9C"/>
				<stop  offset="0.7626" style="stop-color:#DFB259"/>
				<stop  offset="0.8956" style="stop-color:#CE8C32"/>
				<stop  offset="1" style="stop-color:#C27C27"/>
			</linearGradient>
			<path class="st12" d="M2171.304,2698.313c0,27.233-21.333,43.119-62.183,43.119h-78.977v-158.86h74.438
				c38.126,0,58.552,16.112,58.552,41.304c0,16.34-8.17,28.367-20.426,34.949
				C2159.729,2664.271,2171.304,2677.661,2171.304,2698.313z M2059.646,2605.719v43.801h41.758c20.426,0,31.999-7.263,31.999-21.787
				c0-14.751-11.573-22.014-31.999-22.014H2059.646z M2141.574,2695.363c0-15.887-12.028-22.922-34.269-22.922h-47.659v45.843
				h47.659C2129.546,2718.284,2141.574,2711.249,2141.574,2695.363z"/>
			<linearGradient id="SVGID_14_" gradientUnits="userSpaceOnUse" x1="316.5332" y1="2662.0022" x2="3051.5889" y2="2662.0022">
				<stop  offset="0" style="stop-color:#B4681F"/>
				<stop  offset="0.0833" style="stop-color:#CE8C32"/>
				<stop  offset="0.1792" style="stop-color:#CE8C32"/>
				<stop  offset="0.3762" style="stop-color:#DFB259"/>
				<stop  offset="0.4844" style="stop-color:#FDEF9C"/>
				<stop  offset="0.7626" style="stop-color:#DFB259"/>
				<stop  offset="0.8956" style="stop-color:#CE8C32"/>
				<stop  offset="1" style="stop-color:#C27C27"/>
			</linearGradient>
			<path class="st13" d="M2202.843,2582.572h29.503v158.86h-29.503V2582.572z"/>
			<linearGradient id="SVGID_15_" gradientUnits="userSpaceOnUse" x1="316.5332" y1="2662.0022" x2="3051.5889" y2="2662.0022">
				<stop  offset="0" style="stop-color:#B4681F"/>
				<stop  offset="0.0833" style="stop-color:#CE8C32"/>
				<stop  offset="0.1792" style="stop-color:#CE8C32"/>
				<stop  offset="0.3762" style="stop-color:#DFB259"/>
				<stop  offset="0.4844" style="stop-color:#FDEF9C"/>
				<stop  offset="0.7626" style="stop-color:#DFB259"/>
				<stop  offset="0.8956" style="stop-color:#CE8C32"/>
				<stop  offset="1" style="stop-color:#C27C27"/>
			</linearGradient>
			<path class="st14" d="M2275.233,2582.572h29.503v133.896h83.061v24.964h-112.563V2582.572z"/>
			<linearGradient id="SVGID_16_" gradientUnits="userSpaceOnUse" x1="316.5332" y1="2662.0022" x2="3051.5889" y2="2662.0022">
				<stop  offset="0" style="stop-color:#B4681F"/>
				<stop  offset="0.0833" style="stop-color:#CE8C32"/>
				<stop  offset="0.1792" style="stop-color:#CE8C32"/>
				<stop  offset="0.3762" style="stop-color:#DFB259"/>
				<stop  offset="0.4844" style="stop-color:#FDEF9C"/>
				<stop  offset="0.7626" style="stop-color:#DFB259"/>
				<stop  offset="0.8956" style="stop-color:#CE8C32"/>
				<stop  offset="1" style="stop-color:#C27C27"/>
			</linearGradient>
			<path class="st15" d="M2411.171,2582.572h29.503v158.86h-29.503V2582.572z"/>
			<linearGradient id="SVGID_17_" gradientUnits="userSpaceOnUse" x1="316.5332" y1="2662.0022" x2="3051.5889" y2="2662.0022">
				<stop  offset="0" style="stop-color:#B4681F"/>
				<stop  offset="0.0833" style="stop-color:#CE8C32"/>
				<stop  offset="0.1792" style="stop-color:#CE8C32"/>
				<stop  offset="0.3762" style="stop-color:#DFB259"/>
				<stop  offset="0.4844" style="stop-color:#FDEF9C"/>
				<stop  offset="0.7626" style="stop-color:#DFB259"/>
				<stop  offset="0.8956" style="stop-color:#CE8C32"/>
				<stop  offset="1" style="stop-color:#C27C27"/>
			</linearGradient>
			<path class="st16" d="M2586.594,2704.668h-79.431l-15.659,36.765h-30.41l71.487-158.86h29.049l71.715,158.86h-30.865
				L2586.594,2704.668z M2576.835,2681.519l-29.956-69.445l-29.729,69.445H2576.835z"/>
			<linearGradient id="SVGID_18_" gradientUnits="userSpaceOnUse" x1="316.5332" y1="2662.0022" x2="3051.5889" y2="2662.0022">
				<stop  offset="0" style="stop-color:#B4681F"/>
				<stop  offset="0.0833" style="stop-color:#CE8C32"/>
				<stop  offset="0.1792" style="stop-color:#CE8C32"/>
				<stop  offset="0.3762" style="stop-color:#DFB259"/>
				<stop  offset="0.4844" style="stop-color:#FDEF9C"/>
				<stop  offset="0.7626" style="stop-color:#DFB259"/>
				<stop  offset="0.8956" style="stop-color:#CE8C32"/>
				<stop  offset="1" style="stop-color:#C27C27"/>
			</linearGradient>
			<path class="st17" d="M2757.479,2741.432l-32.453-46.523c-2.043,0.227-4.085,0.227-6.128,0.227h-35.856v46.297h-29.503v-158.86
				h65.359c41.758,0,67.63,21.332,67.63,56.509c0,24.056-12.255,41.758-33.815,50.154l36.538,52.197H2757.479z M2717.536,2607.536
				h-34.495v63.317h34.495c25.871,0,39.261-11.802,39.261-31.772C2756.797,2619.109,2743.407,2607.536,2717.536,2607.536z"/>
			<linearGradient id="SVGID_19_" gradientUnits="userSpaceOnUse" x1="316.5332" y1="2662.0022" x2="3051.5889" y2="2662.0022">
				<stop  offset="0" style="stop-color:#B4681F"/>
				<stop  offset="0.0833" style="stop-color:#CE8C32"/>
				<stop  offset="0.1792" style="stop-color:#CE8C32"/>
				<stop  offset="0.3762" style="stop-color:#DFB259"/>
				<stop  offset="0.4844" style="stop-color:#FDEF9C"/>
				<stop  offset="0.7626" style="stop-color:#DFB259"/>
				<stop  offset="0.8956" style="stop-color:#CE8C32"/>
				<stop  offset="1" style="stop-color:#C27C27"/>
			</linearGradient>
			<path class="st18" d="M2819.43,2582.572h29.502v158.86h-29.502V2582.572z"/>
			<linearGradient id="SVGID_20_" gradientUnits="userSpaceOnUse" x1="316.5332" y1="2662.0022" x2="3051.5889" y2="2662.0022">
				<stop  offset="0" style="stop-color:#B4681F"/>
				<stop  offset="0.0833" style="stop-color:#CE8C32"/>
				<stop  offset="0.1792" style="stop-color:#CE8C32"/>
				<stop  offset="0.3762" style="stop-color:#DFB259"/>
				<stop  offset="0.4844" style="stop-color:#FDEF9C"/>
				<stop  offset="0.7626" style="stop-color:#DFB259"/>
				<stop  offset="0.8956" style="stop-color:#CE8C32"/>
				<stop  offset="1" style="stop-color:#C27C27"/>
			</linearGradient>
			<path class="st19" d="M2880.473,2662.002c0-46.978,36.312-81.699,85.558-81.699c49.247,0,85.559,34.495,85.559,81.699
				c0,47.205-36.312,81.7-85.559,81.7C2916.784,2743.702,2880.473,2708.979,2880.473,2662.002z M3021.859,2662.002
				c0-32.453-23.829-55.828-55.829-55.828c-31.999,0-55.828,23.375-55.828,55.828s23.829,55.828,55.828,55.828
				C2998.03,2717.83,3021.859,2694.455,3021.859,2662.002z"/>
		</g>
	</g>
	<g>
		<g>
			<path d="M147.162,2340.084h-42.271v72.798H27.397v-273.972h125.244c74.755,0,121.722,38.748,121.722,101.37
				c0,40.313-19.569,70.059-53.62,86.497l59.1,86.105h-82.975L147.162,2340.084z M147.944,2199.968h-43.053v80.234h43.053
				c32.094,0,48.141-14.873,48.141-39.921C196.085,2214.84,180.038,2199.968,147.944,2199.968z"/>
			<path d="M302.937,2275.897c0-82.191,64.578-142.465,152.249-142.465s152.25,60.274,152.25,142.465
				c0,82.192-64.579,142.465-152.25,142.465S302.937,2358.089,302.937,2275.897z M529.158,2275.897
				c0-47.358-32.485-78.277-73.973-78.277c-41.486,0-73.972,30.919-73.972,78.277s32.485,78.278,73.972,78.278
				C496.673,2354.175,529.158,2323.255,529.158,2275.897z"/>
			<path d="M645.795,2290.769v-151.858h77.495v149.51c0,46.967,19.569,65.753,52.055,65.753c32.094,0,51.663-18.787,51.663-65.753
				v-149.51h76.32v151.858c0,81.801-47.749,127.593-128.767,127.593S645.795,2372.57,645.795,2290.769z"/>
			<path d="M936.601,2388.225l25.44-57.143c24.267,16.047,58.708,27.006,90.411,27.006c32.094,0,44.618-9.002,44.618-22.31
				c0-43.444-155.772-11.742-155.772-113.502c0-48.923,39.921-88.845,121.33-88.845c35.616,0,72.407,8.219,99.412,23.875
				l-23.874,57.534c-26.224-14.09-52.055-21.135-75.93-21.135c-32.485,0-44.227,10.959-44.227,24.657
				c0,41.879,155.381,10.568,155.381,111.546c0,47.75-39.922,88.454-121.33,88.454
				C1007.051,2418.362,962.433,2406.229,936.601,2388.225z"/>
			<path d="M1442.662,2340.084h-42.271v72.798h-77.494v-273.972h125.244c74.755,0,121.722,38.748,121.722,101.37
				c0,40.313-19.569,70.059-53.62,86.497l59.1,86.105h-82.975L1442.662,2340.084z M1443.444,2199.968h-43.053v80.234h43.053
				c32.094,0,48.141-14.873,48.141-39.921C1491.585,2214.84,1475.538,2199.968,1443.444,2199.968z"/>
			<path d="M1832.486,2353v59.882h-219.96v-273.972h214.872v59.882h-138.16v46.184h121.722v57.925h-121.722V2353H1832.486z"/>
			<path d="M2179.654,2444.585c-18.396,22.31-45.401,34.442-76.713,34.442c-44.618,0-73.972-15.264-119.765-63.014
				c-72.015-12.133-122.112-67.71-122.112-140.117c0-82.191,64.578-142.465,152.249-142.465s152.25,60.274,152.25,142.465
				c0,62.231-37.182,111.937-93.15,132.29c10.959,11.741,20.353,15.655,32.095,15.655c14.872,0,29.354-6.653,41.486-19.178
				L2179.654,2444.585z M2013.313,2354.175c41.487,0,73.973-30.92,73.973-78.278s-32.485-78.277-73.973-78.277
				c-41.486,0-73.972,30.919-73.972,78.277S1971.827,2354.175,2013.313,2354.175z"/>
			<path d="M2203.924,2290.769v-151.858h77.495v149.51c0,46.967,19.569,65.753,52.055,65.753c32.094,0,51.663-18.787,51.663-65.753
				v-149.51h76.32v151.858c0,81.801-47.749,127.593-128.767,127.593S2203.924,2372.57,2203.924,2290.769z"/>
			<path d="M2733.867,2353v59.882h-219.96v-273.972h214.872v59.882h-138.16v46.184h121.722v57.925h-121.722V2353H2733.867z"/>
			<path d="M3037.588,2138.911v273.972h-63.796l-120.939-145.988v145.988h-75.929v-273.972h63.796l120.938,145.988v-145.988
				H3037.588z"/>
			<path d="M3275.948,2359.654h-115.851l-21.526,53.229h-79.061l120.938-273.972h76.321l121.33,273.972h-80.626L3275.948,2359.654z
				 M3253.248,2302.511l-35.226-87.671l-35.225,87.671H3253.248z"/>
		</g>
		<g>
			<linearGradient id="SVGID_21_" gradientUnits="userSpaceOnUse" x1="27.3975" y1="2306.2292" x2="3378.1006" y2="2306.2292">
				<stop  offset="0" style="stop-color:#B4681F"/>
				<stop  offset="0.0833" style="stop-color:#CE8C32"/>
				<stop  offset="0.1792" style="stop-color:#CE8C32"/>
				<stop  offset="0.3762" style="stop-color:#DFB259"/>
				<stop  offset="0.4844" style="stop-color:#FDEF9C"/>
				<stop  offset="0.7626" style="stop-color:#DFB259"/>
				<stop  offset="0.8956" style="stop-color:#CE8C32"/>
				<stop  offset="1" style="stop-color:#C27C27"/>
			</linearGradient>
			<path class="st20" d="M147.162,2340.084h-42.271v72.798H27.397v-273.972h125.244c74.755,0,121.722,38.748,121.722,101.37
				c0,40.313-19.569,70.059-53.62,86.497l59.1,86.105h-82.975L147.162,2340.084z M147.944,2199.968h-43.053v80.234h43.053
				c32.094,0,48.141-14.873,48.141-39.921C196.085,2214.84,180.038,2199.968,147.944,2199.968z"/>
			<linearGradient id="SVGID_22_" gradientUnits="userSpaceOnUse" x1="27.3975" y1="2306.2292" x2="3378.1006" y2="2306.2292">
				<stop  offset="0" style="stop-color:#B4681F"/>
				<stop  offset="0.0833" style="stop-color:#CE8C32"/>
				<stop  offset="0.1792" style="stop-color:#CE8C32"/>
				<stop  offset="0.3762" style="stop-color:#DFB259"/>
				<stop  offset="0.4844" style="stop-color:#FDEF9C"/>
				<stop  offset="0.7626" style="stop-color:#DFB259"/>
				<stop  offset="0.8956" style="stop-color:#CE8C32"/>
				<stop  offset="1" style="stop-color:#C27C27"/>
			</linearGradient>
			<path class="st21" d="M302.937,2275.897c0-82.191,64.578-142.465,152.249-142.465s152.25,60.274,152.25,142.465
				c0,82.192-64.579,142.465-152.25,142.465S302.937,2358.089,302.937,2275.897z M529.158,2275.897
				c0-47.358-32.485-78.277-73.973-78.277c-41.486,0-73.972,30.919-73.972,78.277s32.485,78.278,73.972,78.278
				C496.673,2354.175,529.158,2323.255,529.158,2275.897z"/>
			<linearGradient id="SVGID_23_" gradientUnits="userSpaceOnUse" x1="27.3975" y1="2306.2292" x2="3378.1006" y2="2306.2292">
				<stop  offset="0" style="stop-color:#B4681F"/>
				<stop  offset="0.0833" style="stop-color:#CE8C32"/>
				<stop  offset="0.1792" style="stop-color:#CE8C32"/>
				<stop  offset="0.3762" style="stop-color:#DFB259"/>
				<stop  offset="0.4844" style="stop-color:#FDEF9C"/>
				<stop  offset="0.7626" style="stop-color:#DFB259"/>
				<stop  offset="0.8956" style="stop-color:#CE8C32"/>
				<stop  offset="1" style="stop-color:#C27C27"/>
			</linearGradient>
			<path class="st22" d="M645.795,2290.769v-151.858h77.495v149.51c0,46.967,19.569,65.753,52.055,65.753
				c32.094,0,51.663-18.787,51.663-65.753v-149.51h76.32v151.858c0,81.801-47.749,127.593-128.767,127.593
				S645.795,2372.57,645.795,2290.769z"/>
			<linearGradient id="SVGID_24_" gradientUnits="userSpaceOnUse" x1="27.3975" y1="2306.2292" x2="3378.1006" y2="2306.2292">
				<stop  offset="0" style="stop-color:#B4681F"/>
				<stop  offset="0.0833" style="stop-color:#CE8C32"/>
				<stop  offset="0.1792" style="stop-color:#CE8C32"/>
				<stop  offset="0.3762" style="stop-color:#DFB259"/>
				<stop  offset="0.4844" style="stop-color:#FDEF9C"/>
				<stop  offset="0.7626" style="stop-color:#DFB259"/>
				<stop  offset="0.8956" style="stop-color:#CE8C32"/>
				<stop  offset="1" style="stop-color:#C27C27"/>
			</linearGradient>
			<path class="st23" d="M936.601,2388.225l25.44-57.143c24.267,16.047,58.708,27.006,90.411,27.006
				c32.094,0,44.618-9.002,44.618-22.31c0-43.444-155.772-11.742-155.772-113.502c0-48.923,39.921-88.845,121.33-88.845
				c35.616,0,72.407,8.219,99.412,23.875l-23.874,57.534c-26.224-14.09-52.055-21.135-75.93-21.135
				c-32.485,0-44.227,10.959-44.227,24.657c0,41.879,155.381,10.568,155.381,111.546c0,47.75-39.922,88.454-121.33,88.454
				C1007.051,2418.362,962.433,2406.229,936.601,2388.225z"/>
			<linearGradient id="SVGID_25_" gradientUnits="userSpaceOnUse" x1="27.3975" y1="2306.2292" x2="3378.1006" y2="2306.2292">
				<stop  offset="0" style="stop-color:#B4681F"/>
				<stop  offset="0.0833" style="stop-color:#CE8C32"/>
				<stop  offset="0.1792" style="stop-color:#CE8C32"/>
				<stop  offset="0.3762" style="stop-color:#DFB259"/>
				<stop  offset="0.4844" style="stop-color:#FDEF9C"/>
				<stop  offset="0.7626" style="stop-color:#DFB259"/>
				<stop  offset="0.8956" style="stop-color:#CE8C32"/>
				<stop  offset="1" style="stop-color:#C27C27"/>
			</linearGradient>
			<path class="st24" d="M1442.662,2340.084h-42.271v72.798h-77.494v-273.972h125.244c74.755,0,121.722,38.748,121.722,101.37
				c0,40.313-19.569,70.059-53.62,86.497l59.1,86.105h-82.975L1442.662,2340.084z M1443.444,2199.968h-43.053v80.234h43.053
				c32.094,0,48.141-14.873,48.141-39.921C1491.585,2214.84,1475.538,2199.968,1443.444,2199.968z"/>
			<linearGradient id="SVGID_26_" gradientUnits="userSpaceOnUse" x1="27.3975" y1="2306.2292" x2="3378.1006" y2="2306.2292">
				<stop  offset="0" style="stop-color:#B4681F"/>
				<stop  offset="0.0833" style="stop-color:#CE8C32"/>
				<stop  offset="0.1792" style="stop-color:#CE8C32"/>
				<stop  offset="0.3762" style="stop-color:#DFB259"/>
				<stop  offset="0.4844" style="stop-color:#FDEF9C"/>
				<stop  offset="0.7626" style="stop-color:#DFB259"/>
				<stop  offset="0.8956" style="stop-color:#CE8C32"/>
				<stop  offset="1" style="stop-color:#C27C27"/>
			</linearGradient>
			<path class="st25" d="M1832.486,2353v59.882h-219.96v-273.972h214.872v59.882h-138.16v46.184h121.722v57.925h-121.722V2353
				H1832.486z"/>
			<linearGradient id="SVGID_27_" gradientUnits="userSpaceOnUse" x1="27.3975" y1="2306.2292" x2="3378.1006" y2="2306.2292">
				<stop  offset="0" style="stop-color:#B4681F"/>
				<stop  offset="0.0833" style="stop-color:#CE8C32"/>
				<stop  offset="0.1792" style="stop-color:#CE8C32"/>
				<stop  offset="0.3762" style="stop-color:#DFB259"/>
				<stop  offset="0.4844" style="stop-color:#FDEF9C"/>
				<stop  offset="0.7626" style="stop-color:#DFB259"/>
				<stop  offset="0.8956" style="stop-color:#CE8C32"/>
				<stop  offset="1" style="stop-color:#C27C27"/>
			</linearGradient>
			<path class="st26" d="M2179.654,2444.585c-18.396,22.31-45.401,34.442-76.713,34.442c-44.618,0-73.972-15.264-119.765-63.014
				c-72.015-12.133-122.112-67.71-122.112-140.117c0-82.191,64.578-142.465,152.249-142.465s152.25,60.274,152.25,142.465
				c0,62.231-37.182,111.937-93.15,132.29c10.959,11.741,20.353,15.655,32.095,15.655c14.872,0,29.354-6.653,41.486-19.178
				L2179.654,2444.585z M2013.313,2354.175c41.487,0,73.973-30.92,73.973-78.278s-32.485-78.277-73.973-78.277
				c-41.486,0-73.972,30.919-73.972,78.277S1971.827,2354.175,2013.313,2354.175z"/>
			<linearGradient id="SVGID_28_" gradientUnits="userSpaceOnUse" x1="27.3975" y1="2306.2292" x2="3378.1006" y2="2306.2292">
				<stop  offset="0" style="stop-color:#B4681F"/>
				<stop  offset="0.0833" style="stop-color:#CE8C32"/>
				<stop  offset="0.1792" style="stop-color:#CE8C32"/>
				<stop  offset="0.3762" style="stop-color:#DFB259"/>
				<stop  offset="0.4844" style="stop-color:#FDEF9C"/>
				<stop  offset="0.7626" style="stop-color:#DFB259"/>
				<stop  offset="0.8956" style="stop-color:#CE8C32"/>
				<stop  offset="1" style="stop-color:#C27C27"/>
			</linearGradient>
			<path class="st27" d="M2203.924,2290.769v-151.858h77.495v149.51c0,46.967,19.569,65.753,52.055,65.753
				c32.094,0,51.663-18.787,51.663-65.753v-149.51h76.32v151.858c0,81.801-47.749,127.593-128.767,127.593
				S2203.924,2372.57,2203.924,2290.769z"/>
			<linearGradient id="SVGID_29_" gradientUnits="userSpaceOnUse" x1="27.3975" y1="2306.2292" x2="3378.1006" y2="2306.2292">
				<stop  offset="0" style="stop-color:#B4681F"/>
				<stop  offset="0.0833" style="stop-color:#CE8C32"/>
				<stop  offset="0.1792" style="stop-color:#CE8C32"/>
				<stop  offset="0.3762" style="stop-color:#DFB259"/>
				<stop  offset="0.4844" style="stop-color:#FDEF9C"/>
				<stop  offset="0.7626" style="stop-color:#DFB259"/>
				<stop  offset="0.8956" style="stop-color:#CE8C32"/>
				<stop  offset="1" style="stop-color:#C27C27"/>
			</linearGradient>
			<path class="st28" d="M2733.867,2353v59.882h-219.96v-273.972h214.872v59.882h-138.16v46.184h121.722v57.925h-121.722V2353
				H2733.867z"/>
			<linearGradient id="SVGID_30_" gradientUnits="userSpaceOnUse" x1="27.3975" y1="2306.2292" x2="3378.1006" y2="2306.2292">
				<stop  offset="0" style="stop-color:#B4681F"/>
				<stop  offset="0.0833" style="stop-color:#CE8C32"/>
				<stop  offset="0.1792" style="stop-color:#CE8C32"/>
				<stop  offset="0.3762" style="stop-color:#DFB259"/>
				<stop  offset="0.4844" style="stop-color:#FDEF9C"/>
				<stop  offset="0.7626" style="stop-color:#DFB259"/>
				<stop  offset="0.8956" style="stop-color:#CE8C32"/>
				<stop  offset="1" style="stop-color:#C27C27"/>
			</linearGradient>
			<path class="st29" d="M3037.588,2138.911v273.972h-63.796l-120.939-145.988v145.988h-75.929v-273.972h63.796l120.938,145.988
				v-145.988H3037.588z"/>
			<linearGradient id="SVGID_31_" gradientUnits="userSpaceOnUse" x1="27.3975" y1="2306.2292" x2="3378.1006" y2="2306.2292">
				<stop  offset="0" style="stop-color:#B4681F"/>
				<stop  offset="0.0833" style="stop-color:#CE8C32"/>
				<stop  offset="0.1792" style="stop-color:#CE8C32"/>
				<stop  offset="0.3762" style="stop-color:#DFB259"/>
				<stop  offset="0.4844" style="stop-color:#FDEF9C"/>
				<stop  offset="0.7626" style="stop-color:#DFB259"/>
				<stop  offset="0.8956" style="stop-color:#CE8C32"/>
				<stop  offset="1" style="stop-color:#C27C27"/>
			</linearGradient>
			<path class="st30" d="M3275.948,2359.654h-115.851l-21.526,53.229h-79.061l120.938-273.972h76.321l121.33,273.972h-80.626
				L3275.948,2359.654z M3253.248,2302.511l-35.226-87.671l-35.225,87.671H3253.248z"/>
		</g>
	</g>
</g>
</svg>